<?xml version="1.0" encoding="utf-8"?>
<!-- Generator: Adobe Illustrator 15.0.0, SVG Export Plug-In . SVG Version: 6.00 Build 0)  -->
<!DOCTYPE svg PUBLIC "-//W3C//DTD SVG 1.1//EN" "http://www.w3.org/Graphics/SVG/1.1/DTD/svg11.dtd">
<svg version="1.1" id="レイヤー_1" xmlns="http://www.w3.org/2000/svg" xmlns:xlink="http://www.w3.org/1999/xlink" x="0px"
	 y="0px" width="30px" height="26px" viewBox="0 0 30 26" enable-background="new 0 0 30 26" xml:space="preserve">
<path fill-rule="evenodd" clip-rule="evenodd" fill="#8FC332" d="M19.7,0c0.41,0,0.821,0,1.231,0
	c3.967,0.679,6.665,2.508,8.032,5.326c1.869,3.849,0.985,8.216-0.879,11.26c-1.772,2.896-4.722,5.624-7.681,7.202
	c-3.242,1.729-8.455,2.839-13.075,1.826C3.331,24.737,0.653,22.072,0,18.158c0-0.406,0-0.812,0-1.218
	c0.143-3.254,2.262-4.621,4.749-6.036c3.116-1.772,6.2-3.516,8.385-5.884C15.056,2.938,16.123,0.427,19.7,0z M14.775,6.086
	c-0.059,0.001-0.07-0.041-0.117-0.051c-1.575,2.341-4.146,3.819-6.802,5.224C11.789,12.143,15.398,9.195,14.775,6.086z"/>
</svg>
